<?xml version="1.0" encoding="utf-8"?>
<!-- Generator: Adobe Illustrator 19.2.1, SVG Export Plug-In . SVG Version: 6.00 Build 0)  -->
<svg version="1.1" id="layer" xmlns="http://www.w3.org/2000/svg" xmlns:xlink="http://www.w3.org/1999/xlink" x="0px" y="0px"
	 viewBox="0 0 652 652" style="enable-background:new 0 0 652 652;" xml:space="preserve">
<style type="text/css">
	.st0{fill:#E62B2F;}
</style>
<path class="st0" d="M740.3,511.3c-1.8-1.4-4-2.5-6.5-3.3c-2.5-0.8-5-1.3-7.6-1.3c-4.2,0-7.4,0.9-9.6,2.8c-2.2,1.8-3.3,4.4-3.3,7.7
	c0,1.9,0.4,3.5,1.3,5c0.9,1.4,2.3,2.7,4.3,3.9c2,1.1,5.2,2.4,9.7,3.8c6.3,2,11,4.7,13.9,8c2.9,3.3,4.4,7.4,4.4,12.4
	c0,6.6-2.1,11.8-6.3,15.6c-4.2,3.8-10,5.7-17.3,5.7c-3.8,0-7.4-0.4-10.7-1.3c-3.3-0.8-5.9-1.9-7.8-3.3c-1.7-1.1-2.6-2.4-2.6-3.9
	c0-0.7,0.3-1.6,0.9-2.8c0.6-1.1,1.3-2.3,2.2-3.5c2.6,2.2,5.5,3.8,8.6,5c3.1,1.2,6.2,1.8,9.3,1.8c4.6,0,8.1-1.1,10.5-3.2
	c2.4-2.1,3.6-5.1,3.6-8.8c0-2.3-0.4-4.3-1.3-5.9c-0.8-1.7-2.2-3.1-4.1-4.3c-1.9-1.2-4.7-2.4-8.4-3.6c-5.2-1.5-9.2-3.1-11.9-4.9
	c-2.7-1.7-4.7-3.8-6-6.2c-1.3-2.4-2-5.3-2-8.7c0-4,0.9-7.5,2.8-10.3c1.9-2.9,4.5-5,7.9-6.6c3.4-1.5,7.3-2.3,11.6-2.3
	c2.8,0,5.6,0.4,8.6,1.1c2.9,0.7,5.4,1.6,7.3,2.8c1.4,0.8,2.4,1.7,3,2.5c0.6,0.8,0.9,1.7,0.9,2.6c0,1.5-1.1,3.3-3.4,5.6
	c-0.3-0.3-0.6-0.6-1-0.9C741.2,511.9,740.8,511.6,740.3,511.3 M666.3,507.9h-22.1c-0.2-1-0.3-1.9-0.3-2.9c0-1.5,0.6-2.7,1.8-3.6
	c1.2-0.9,2.7-1.4,4.6-1.4h47.9c0.1,1,0.2,1.8,0.2,2.4c0,1.7-0.6,3-1.7,4c-1.1,1-2.7,1.5-4.6,1.5h-16.5v61.9h-9.2V507.9z
	 M611.8,533.5c11.5,0,17.2-4.6,17.2-13.8c0-4.5-1.3-7.8-3.9-9.8c-2.6-2-7-3-13.3-3c-3.3,0-5.8,0.1-7.5,0.4v26.1H611.8z M595.3,500.2
	c4.3-0.6,9.8-0.9,16.4-0.9c9.3,0,16.1,1.6,20.4,4.7c4.3,3.2,6.4,8.2,6.4,15.2c0,3.5-0.6,6.7-1.9,9.6c-1.3,2.8-3.1,5.1-5.4,7
	c-2.3,1.9-5,3.1-8,3.8l19.1,30.3c-1.2,0.6-2.8,0.9-4.9,0.9c-3.1,0-5.6-1.4-7.4-4.1l-16.3-25.5h-9.3v28.6h-9.1V500.2z M571.2,534.6
	c0-9-1.7-16-5.2-20.8c-3.4-4.8-8.5-7.2-15.1-7.2c-6.8,0-12,2.4-15.6,7.1c-3.5,4.8-5.3,11.7-5.3,20.8c0,9.2,1.8,16.3,5.3,21.2
	c3.5,5,8.6,7.5,15.3,7.5c6.7,0,11.8-2.5,15.3-7.5C569.4,550.8,571.2,543.8,571.2,534.6 M580.7,534.5c0,11.4-2.6,20.4-7.9,27
	c-5.3,6.6-12.8,9.9-22.5,9.9c-6.4,0-11.8-1.5-16.2-4.4c-4.4-3-7.8-7.2-10.1-12.8c-2.3-5.6-3.4-12.1-3.4-19.5
	c0-7.3,1.3-13.7,3.8-19.2c2.5-5.5,6-9.7,10.6-12.5c4.6-2.9,10-4.3,16.3-4.3c6.3,0,11.7,1.4,16.1,4.3c4.4,2.9,7.7,7,10,12.4
	C579.6,520.8,580.7,527.2,580.7,534.5 M503.3,511.3c-1.8-1.4-4-2.5-6.5-3.3c-2.5-0.8-5-1.3-7.6-1.3c-4.2,0-7.4,0.9-9.6,2.8
	c-2.2,1.8-3.3,4.4-3.3,7.7c0,1.9,0.4,3.5,1.3,5c0.9,1.4,2.3,2.7,4.3,3.9c2,1.1,5.3,2.4,9.7,3.8c6.3,2,11,4.7,13.9,8
	c2.9,3.3,4.4,7.4,4.4,12.4c0,6.6-2.1,11.8-6.3,15.6c-4.2,3.8-10,5.7-17.3,5.7c-3.8,0-7.4-0.4-10.7-1.3c-3.3-0.8-5.9-1.9-7.8-3.3
	c-1.7-1.1-2.6-2.4-2.6-3.9c0-0.7,0.3-1.6,0.9-2.8c0.6-1.1,1.3-2.3,2.2-3.5c2.6,2.2,5.5,3.8,8.6,5c3.1,1.2,6.2,1.8,9.3,1.8
	c4.6,0,8.1-1.1,10.5-3.2c2.4-2.1,3.7-5.1,3.7-8.8c0-2.3-0.4-4.3-1.3-5.9c-0.8-1.7-2.2-3.1-4.1-4.3c-1.9-1.2-4.7-2.4-8.4-3.6
	c-5.2-1.5-9.2-3.1-11.9-4.9c-2.7-1.7-4.7-3.8-6-6.2c-1.3-2.4-2-5.3-2-8.7c0-4,0.9-7.5,2.8-10.3c1.9-2.9,4.5-5,7.9-6.6
	c3.4-1.5,7.2-2.3,11.6-2.3c2.8,0,5.6,0.4,8.6,1.1c2.9,0.7,5.4,1.6,7.3,2.8c1.4,0.8,2.4,1.7,3,2.5c0.6,0.8,0.9,1.7,0.9,2.6
	c0,1.5-1.1,3.3-3.4,5.6c-0.3-0.3-0.6-0.6-1-0.9C504.2,511.9,503.8,511.6,503.3,511.3 M417.4,500h40.3c0.1,0.7,0.2,1.4,0.2,2.2
	c0,3.8-2.1,5.6-6.4,5.6h-25v21.5h23.7v8h-23.7V562H453c2.1,0,3.7,0.5,4.8,1.5c1.1,1,1.7,2.4,1.7,4.2c0,0.7,0,1.4-0.1,2.2h-42V500z
	 M376,533.5c11.5,0,17.2-4.6,17.2-13.8c0-4.5-1.3-7.8-3.9-9.8c-2.6-2-7-3-13.3-3c-3.3,0-5.8,0.1-7.5,0.4v26.1H376z M359.5,500.2
	c4.3-0.6,9.8-0.9,16.4-0.9c9.3,0,16.1,1.6,20.4,4.7c4.3,3.2,6.4,8.2,6.4,15.2c0,3.5-0.6,6.7-1.9,9.6c-1.3,2.8-3.1,5.1-5.4,7
	c-2.3,1.9-5,3.1-8,3.8l19.1,30.3c-1.2,0.6-2.8,0.9-4.9,0.9c-3.1,0-5.6-1.4-7.4-4.1l-16.3-25.5h-9.3v28.6h-9.1V500.2z M284.8,532.9
	c-4.3,1.8-7.6,4.1-9.8,7c-2.2,2.9-3.3,6.1-3.3,9.8c0,4,1.3,7.3,3.8,9.8c2.5,2.5,5.9,3.8,10.1,3.8c3.3,0,6.2-0.7,8.7-2.1
	c2.5-1.4,5-3.8,7.6-7.1L284.8,532.9z M307.1,560.1c-3.5,3.8-7,6.5-10.4,8.2c-3.5,1.7-7.2,2.6-11.3,2.6c-4.7,0-8.8-0.9-12.1-2.6
	c-3.3-1.7-5.9-4.1-7.7-7.3c-1.8-3.1-2.7-6.7-2.7-10.9c0-5.4,1.5-10.2,4.5-14.2c3-4,7.3-7.2,12.9-9.5c-1.7-2.2-2.9-4.3-3.6-6.1
	c-0.7-1.8-1-3.9-1-6.2c0-3.1,0.8-5.8,2.5-8.2c1.6-2.4,3.8-4.2,6.6-5.5c2.7-1.3,5.8-1.9,9-1.9c5,0,9.2,1.1,12.6,3.4
	c1.5,1.1,2.3,2.4,2.3,3.8c0,1.3-1,3.1-3.1,5.4h-1c-1.8-1.7-3.5-3-5.1-3.7c-1.6-0.7-3.4-1.1-5.3-1.1c-2.7,0-4.9,0.8-6.6,2.3
	c-1.7,1.5-2.5,3.6-2.5,6.1c0,1.5,0.3,3,1,4.5c0.7,1.5,1.8,3.3,3.5,5.5c1.8,2.2,3.7,4.6,5.7,7c2,2.5,4,4.9,6,7.4c2,2.5,3.9,4.8,5.7,7
	c2.1-5.1,3.2-10.5,3.2-16.2c0-2.5,0-4.3-0.1-5.5h16.8v6.8h-9.2c-0.4,8.1-2.2,15.3-5.4,21.7l13.4,16.4c-1.8,0.8-3.5,1.2-5.1,1.2
	c-2.7,0-5-1-6.9-3.1L307.1,560.1z M225.8,511.3c-1.8-1.4-4-2.5-6.5-3.3c-2.5-0.8-5-1.3-7.6-1.3c-4.2,0-7.4,0.9-9.6,2.8
	c-2.2,1.8-3.3,4.4-3.3,7.7c0,1.9,0.4,3.5,1.3,5c0.9,1.4,2.3,2.7,4.3,3.9c2,1.1,5.3,2.4,9.7,3.8c6.3,2,11,4.7,13.9,8
	c2.9,3.3,4.4,7.4,4.4,12.4c0,6.6-2.1,11.8-6.3,15.6s-10,5.7-17.3,5.7c-3.8,0-7.4-0.4-10.7-1.3c-3.3-0.8-5.9-1.9-7.8-3.3
	c-1.7-1.1-2.6-2.4-2.6-3.9c0-0.7,0.3-1.6,0.9-2.8c0.6-1.1,1.3-2.3,2.2-3.5c2.6,2.2,5.5,3.8,8.6,5c3.1,1.2,6.2,1.8,9.3,1.8
	c4.6,0,8.1-1.1,10.5-3.2c2.4-2.1,3.7-5.1,3.7-8.8c0-2.3-0.4-4.3-1.3-5.9c-0.8-1.7-2.2-3.1-4.1-4.3c-1.9-1.2-4.7-2.4-8.4-3.6
	c-5.2-1.5-9.2-3.1-11.9-4.9c-2.7-1.7-4.7-3.8-6-6.2c-1.3-2.4-2-5.3-2-8.7c0-4,0.9-7.5,2.8-10.3c1.9-2.9,4.5-5,7.9-6.6
	c3.4-1.5,7.2-2.3,11.6-2.3c2.8,0,5.6,0.4,8.6,1.1c2.9,0.7,5.4,1.6,7.3,2.8c1.4,0.8,2.4,1.7,3,2.5c0.6,0.8,0.9,1.7,0.9,2.6
	c0,1.5-1.1,3.3-3.4,5.6c-0.3-0.3-0.6-0.6-1-0.9C226.7,511.9,226.3,511.6,225.8,511.3 M143,499.9c1.1-0.1,2-0.2,2.6-0.2
	c4.3,0,6.5,2.2,6.5,6.6v55.6h24.2c2,0,3.6,0.5,4.6,1.5c1.1,1,1.6,2.3,1.6,4.1c0,0.8,0,1.6-0.1,2.4H143V499.9z M89.9,500h40.3
	c0.1,0.7,0.2,1.4,0.2,2.2c0,3.8-2.1,5.6-6.4,5.6H99v21.5h23.7v8H99V562h26.5c2.1,0,3.7,0.5,4.8,1.5c1.1,1,1.7,2.4,1.7,4.2
	c0,0.7,0,1.4-0.1,2.2h-42V500z M48.7,507.9H26.6c-0.2-1-0.3-1.9-0.3-2.9c0-1.5,0.6-2.7,1.8-3.6c1.2-0.9,2.7-1.4,4.6-1.4h47.9
	c0.1,1,0.2,1.8,0.2,2.4c0,1.7-0.6,3-1.7,4c-1.2,1-2.7,1.5-4.6,1.5H57.9v61.9h-9.2V507.9z M13.2,534.6c0-9-1.7-16-5.2-20.8
	c-3.4-4.8-8.5-7.2-15.1-7.2c-6.8,0-12,2.4-15.5,7.1c-3.6,4.8-5.3,11.7-5.3,20.8c0,9.2,1.8,16.3,5.3,21.2c3.5,5,8.6,7.5,15.3,7.5
	c6.7,0,11.8-2.5,15.3-7.5C11.4,550.8,13.2,543.8,13.2,534.6 M22.7,534.5c0,11.4-2.6,20.4-7.9,27c-5.3,6.6-12.8,9.9-22.5,9.9
	c-6.4,0-11.8-1.5-16.2-4.4c-4.4-3-7.8-7.2-10.1-12.8c-2.3-5.6-3.4-12.1-3.4-19.5c0-7.3,1.2-13.7,3.8-19.2c2.5-5.5,6.1-9.7,10.6-12.5
	c4.6-2.9,10-4.3,16.3-4.3c6.3,0,11.7,1.4,16.1,4.3c4.4,2.9,7.7,7,10,12.4C21.5,520.8,22.7,527.2,22.7,534.5 M-103.4,499.9
	c1.1-0.1,2-0.2,2.6-0.2c4.3,0,6.5,2.2,6.5,6.6v23.3h33.2v-29.6c1.1-0.1,2-0.2,2.6-0.2c4.3,0,6.5,2.2,6.5,6.6v63.6h-9.1v-32.3h-33.2
	v32.3h-9.1V499.9z M676.2,71.4v194.2c0,53.2-17.3,90.3-74.3,90.3c-57.3,0-72.8-37.1-72.8-90.3V124.1c0-55-71-52.7-71-52.7v199.3
	c0,87.7,40.7,151.1,143.8,151.1c102.9,0,145.3-70,145.3-151.1V71.4H676.2z M282.4,71.4v344.8h71V124.1
	C353.4,69.1,282.4,71.4,282.4,71.4 M55.5,236.2h-88.2V133.2h88.2c32.5,0,55.8,17.7,55.8,51.7C111.3,216.9,88,236.2,55.5,236.2
	 M142.7,329.9c-12.2-21.4-21.6-36.2-28.4-46.4c41.8-15.8,71.1-52.3,71.1-100.1c0-84.7-69.4-112.1-137.4-112.1h-151.6v344.8h71V292
	H1.8c5.5,0,10.8,0.1,16.2,0.2c8.4,0.5,22.7,4.3,33.2,21.2c10.9,18,16.7,30.2,33,57.5c18,29.8,36.1,50.9,68.1,50.9
	c40.3,0,45.7-39.1,45.7-39.1C172.8,374.5,154.8,351.1,142.7,329.9"/>
</svg>
