<svg width="98" height="47" viewBox="0 0 98 47" fill="none" xmlns="http://www.w3.org/2000/svg">
<path fill-rule="evenodd" clip-rule="evenodd" d="M60.6667 6.58H67.2001V0H60.6667V6.58Z" fill="#FCB813"/>
<path fill-rule="evenodd" clip-rule="evenodd" d="M60.6667 47H67.2001V10.34H60.6667V47Z" fill="#DE1E25"/>
<path fill-rule="evenodd" clip-rule="evenodd" d="M26.1333 22.4176C26.1333 15.747 20.2832 10.34 13.0665 10.34C9.45848 10.34 6.1917 11.692 3.82716 13.8773L8.08198 18.0768C9.3306 16.8521 11.102 16.0875 13.0665 16.0875C16.849 16.0875 19.915 18.9215 19.915 22.4176V34.9224C19.915 38.4184 16.849 41.2524 13.0665 41.2524C9.28433 41.2524 6.21805 38.4184 6.21805 34.9224C6.21805 31.4263 9.28433 28.5923 13.0665 28.5923C14.3447 28.5923 15.5409 28.9157 16.565 29.479L16.5418 23.2769C15.4352 22.9951 14.2701 22.8448 13.0665 22.8448C5.85014 22.8448 0 28.2518 0 34.9224C0 41.5926 5.85014 47 13.0665 47C20.2832 47 26.1333 41.5926 26.1333 34.9224V22.4176Z" fill="#DE1E25"/>
<path fill-rule="evenodd" clip-rule="evenodd" d="M71.8667 34.9224C71.8667 41.5926 77.7168 47 84.9334 47C88.5413 47 91.8081 45.6479 94.1729 43.4626L89.9181 39.2632C88.6695 40.4878 86.8978 41.2524 84.9334 41.2524C81.1512 41.2524 78.0853 38.4184 78.0853 34.9224V22.4176C78.0853 18.9215 81.1512 16.0875 84.9334 16.0875C88.7155 16.0875 91.7817 18.9215 91.7817 22.4176C91.7817 25.9136 88.7155 28.7476 84.9334 28.7476C83.6552 28.7476 82.4593 28.4242 81.435 27.861L81.4584 34.063C82.5647 34.3448 83.7301 34.4952 84.9334 34.4952C92.15 34.4952 98 29.0881 98 22.4176C98 15.7473 92.15 10.34 84.9334 10.34C77.7168 10.34 71.8667 15.7473 71.8667 22.4176V34.9224Z" fill="#DE1E25"/>
<path fill-rule="evenodd" clip-rule="evenodd" d="M50.0039 0V34.6615C50.0039 38.2331 47.0473 41.1283 43.4 41.1283C39.7531 41.1283 36.7962 38.2331 36.7962 34.6615V22.323C36.7962 18.7511 39.7531 15.8561 43.4 15.8561C44.636 15.8561 45.7929 16.1885 46.7821 16.7671L46.7805 10.4335C45.7048 10.1406 44.5712 9.98444 43.4 9.98444C36.4414 9.98444 30.8 15.5083 30.8 22.323V34.6615C30.8 41.4758 36.4414 47 43.4 47C50.3591 47 56 41.4758 56 34.6615V0H50.0039Z" fill="#DE1E25"/>
</svg>
