<svg id="Layer_1" data-name="Layer 1" xmlns="http://www.w3.org/2000/svg" viewBox="0 0 195 39.61"><defs><style>.cls-1,.cls-2{fill:#6d6e71;}.cls-1{fill-rule:evenodd;}</style></defs><title>1.Pen-Hotels-(Black)</title><path class="cls-1" d="M2408.4,990.29c0,1.9,0,3.54-.11,4.41-.06.6-.18,1-.6,1.13a2.8,2.8,0,0,1-.74.09c-.25,0-.33.06-.33.16s.14.21.41.21c.83,0,2.13-.06,2.61-.06s1.88.06,3.25.06c.22,0,.39-.06.39-.21s-.1-.16-.33-.16a7.33,7.33,0,0,1-1.06-.09c-.62-.08-.74-.53-.8-1.11-.11-.89-.11-2.53-.11-4.43v-8.48l2.61.06c1.84,0,2.4.62,2.44,1.16l0,.23c0,.31.06.41.23.41s.16-.12.19-.33c0-.54.06-2,.06-2.4s0-.43-.17-.43a9.21,9.21,0,0,1-2,.2h-8.2c-.68,0-1.46,0-2.06-.1a4.45,4.45,0,0,1-.89-.25c-.13,0-.19.13-.25.39s-.44,2-.44,2.38,0,.33.19.33.19-.08.23-.24a2.29,2.29,0,0,1,.35-.73c.31-.45.81-.56,2-.6l3.08-.08Z" transform="translate(-2402.5 -980.2)"/><path class="cls-1" d="M2423,987.23a.13.13,0,0,1-.13-.15v-.43c0-3.14,0-3.72.05-4.39s.2-1.07.76-1.17a3,3,0,0,1,.6-.07c.25,0,.37,0,.37-.18s-.14-.19-.43-.19c-.81,0-2.11.06-2.61.06s-1.86-.06-3-.06c-.29,0-.43,0-.43.19s.12.18.35.18a3.63,3.63,0,0,1,.81.07c.68.14.85.47.89,1.17s0,1.25,0,4.39v3.64c0,1.9,0,3.54-.11,4.41-.08.6-.18,1-.6,1.13a2.8,2.8,0,0,1-.74.09c-.25,0-.33.06-.33.16s.14.21.41.21c.83,0,2.13-.06,2.61-.06s1.88.06,3.23.06c.24,0,.41-.06.41-.21s-.1-.16-.33-.16a7.33,7.33,0,0,1-1.06-.09c-.62-.08-.74-.53-.8-1.11-.11-.89-.11-2.53-.11-4.43v-1.82c0-.1.07-.12.13-.12h7.9a.12.12,0,0,1,.12.12v1.82c0,1.9,0,3.54-.1,4.41-.08.6-.19,1-.6,1.13a2.86,2.86,0,0,1-.74.09c-.25,0-.33.06-.33.16s.14.21.43.21c.81,0,2.11-.06,2.59-.06s1.88.06,3.22.06c.25,0,.42-.06.42-.21s-.11-.16-.33-.16a7.33,7.33,0,0,1-1.06-.09c-.62-.08-.74-.53-.81-1.11-.1-.89-.1-2.53-.1-4.43v-3.64c0-3.14,0-3.72,0-4.39s.21-1.07.77-1.17a3,3,0,0,1,.6-.07c.25,0,.37,0,.37-.18s-.15-.19-.44-.19c-.8,0-2.11.06-2.6.06s-1.86-.06-3-.06c-.29,0-.44,0-.44.19s.13.18.36.18a3.48,3.48,0,0,1,.8.07c.69.14.85.47.89,1.17s0,1.25,0,4.39v.43c0,.11-.06.15-.12.15Z" transform="translate(-2402.5 -980.2)"/><path class="cls-1" d="M2440.84,990.29c0,1.9,0,3.54-.1,4.41-.09.6-.19,1-.6,1.13a3,3,0,0,1-.75.09c-.25,0-.33.06-.33.16s.15.21.42.21c.82,0,2.13-.06,2.6-.06,1.22,0,2.61.12,5.73.12.79,0,1,0,1.12-.54a16.68,16.68,0,0,0,.27-2.29c0-.21,0-.38-.17-.38s-.18.09-.23.32c-.14.84-.39,1.28-.93,1.53a5.36,5.36,0,0,1-1.94.24c-2.11,0-2.44-.31-2.48-1.73,0-.6,0-2.51,0-3.21v-1.63c0-.13,0-.21.12-.21.5,0,2.55,0,2.94.06.76.08,1,.39,1.16.81a5.7,5.7,0,0,1,.08.74c0,.11,0,.19.19.19s.18-.23.18-.39,0-1,.09-1.39c.06-1.05.16-1.39.16-1.51s-.06-.17-.14-.17-.19.11-.34.27-.49.27-1,.31-2.85,0-3.31,0c-.12,0-.14-.09-.14-.23V982c0-.14,0-.2.14-.2.42,0,2.59,0,2.94.08,1,.12,1.24.37,1.39.74a2.3,2.3,0,0,1,.12.75c0,.19,0,.29.19.29s.18-.12.2-.23.09-1.16.11-1.36c.06-1,.16-1.2.16-1.35s0-.18-.12-.18a1.77,1.77,0,0,0-.33.08,8.85,8.85,0,0,1-.89.12c-.4,0-4.51,0-5.17,0s-1.89-.06-3-.06c-.31,0-.46,0-.46.19s.13.18.35.18a3.63,3.63,0,0,1,.81.07c.68.14.85.47.89,1.17s0,1.25,0,4.39Z" transform="translate(-2402.5 -980.2)"/><path class="cls-1" d="M2463.17,990.29c0,1.9,0,3.54-.11,4.41-.08.6-.18,1-.6,1.13a2.8,2.8,0,0,1-.74.09c-.25,0-.33.06-.33.16s.14.21.41.21c.83,0,2.13-.06,2.61-.06s1.84.06,3.21.06c.22,0,.39-.06.39-.21s-.1-.16-.33-.16a7.33,7.33,0,0,1-1.06-.09c-.62-.08-.74-.53-.8-1.11-.11-.89-.11-2.53-.11-4.43V982c0-.23.06-.36.17-.4a2.94,2.94,0,0,1,.8-.08,3,3,0,0,1,2.07.81,4,4,0,0,1,1.22,3.1,3.25,3.25,0,0,1-2.77,3.41c-.43,0-.58.07-.58.23s.15.17.25.19a3.17,3.17,0,0,0,.44,0,4.87,4.87,0,0,0,5.08-5,3.61,3.61,0,0,0-1-2.46c-.33-.31-1.26-1.18-3.85-1.18-1,0-2.15.06-3,.06-.58,0-1.88-.06-3-.06-.31,0-.45,0-.45.19s.12.18.35.18a3.63,3.63,0,0,1,.81.07c.68.14.85.47.89,1.17s0,1.25,0,4.39Z" transform="translate(-2402.5 -980.2)"/><path class="cls-1" d="M2476.92,990.29c0,1.9,0,3.54-.11,4.41-.08.6-.18,1-.6,1.13a2.8,2.8,0,0,1-.74.09c-.25,0-.33.06-.33.16s.14.21.41.21c.83,0,2.13-.06,2.61-.06,1.22,0,2.6.12,5.73.12.78,0,1,0,1.11-.54a15.26,15.26,0,0,0,.27-2.29c0-.21,0-.38-.16-.38s-.19.09-.23.32c-.14.84-.39,1.28-.93,1.53a5.45,5.45,0,0,1-1.95.24c-2.11,0-2.44-.31-2.48-1.73,0-.6,0-2.51,0-3.21v-1.63c0-.13,0-.21.13-.21.49,0,2.54,0,2.93.06.77.08,1.06.39,1.16.81a5.7,5.7,0,0,1,.08.74.17.17,0,0,0,.19.19c.19,0,.19-.23.19-.39s0-1,.08-1.39a13.68,13.68,0,0,1,.17-1.51c0-.12-.07-.17-.15-.17s-.19.11-.33.27a1.43,1.43,0,0,1-1,.31c-.48,0-2.86,0-3.31,0-.13,0-.15-.09-.15-.23V982c0-.14,0-.2.15-.2.41,0,2.58,0,2.93.08,1,.12,1.25.37,1.39.74a2.3,2.3,0,0,1,.12.75c0,.19,0,.29.19.29s.19-.12.21-.23.08-1.16.1-1.36a11.86,11.86,0,0,1,.17-1.35c0-.1,0-.18-.13-.18a2,2,0,0,0-.33.08,8.44,8.44,0,0,1-.89.12c-.39,0-4.51,0-5.17,0s-1.88-.06-3-.06c-.31,0-.45,0-.45.19s.12.18.35.18a3.48,3.48,0,0,1,.8.07c.69.14.85.47.89,1.17s.05,1.25.05,4.39Z" transform="translate(-2402.5 -980.2)"/><path class="cls-1" d="M2491.74,984.79h.06c.37.39,2.67,3,4.93,5.21s4.79,4.84,6.1,6.08c.23.23.47.46.7.46s.27-.19.27-.64l.23-13.06c0-1.15.18-1.59.76-1.75a2,2,0,0,1,.62-.07c.25,0,.38-.06.38-.18s-.21-.19-.48-.19c-1,0-1.8.06-2,.06-.43,0-1.42-.06-2.5-.06-.31,0-.54,0-.54.19s.08.18.33.18a3.25,3.25,0,0,1,1.1.13c.5.2.68.6.7,1.86l.21,9.29h-.1c-.36-.33-3.15-3.31-4.55-4.72-3-3-6.17-6.37-6.42-6.64s-.54-.64-.76-.64-.27.29-.27.7l-.19,12.25c0,1.8-.1,2.4-.64,2.56a3.37,3.37,0,0,1-.93.11c-.21,0-.33,0-.33.16s.18.21.45.21c1.08,0,2-.06,2.24-.06.39,0,1.22.06,2.56.06.29,0,.48,0,.48-.21s-.13-.16-.35-.16a3.17,3.17,0,0,1-1.08-.15c-.41-.14-.68-.68-.72-2.29Z" transform="translate(-2402.5 -980.2)"/><path class="cls-1" d="M2511,990.29c0,2,0,3.64-.11,4.51-.06.6-.18,1-.6,1a2.8,2.8,0,0,1-.74.09c-.25,0-.33.06-.33.16s.14.21.41.21c.83,0,2.13-.06,2.61-.06s1.86.06,3.23.06c.22,0,.39-.06.39-.21s-.1-.16-.33-.16a7.33,7.33,0,0,1-1.06-.09c-.62-.08-.76-.45-.82-1-.09-.89-.09-2.52-.09-4.53v-3.64c0-3.14,0-3.72,0-4.39s.21-1.07.77-1.17a2.87,2.87,0,0,1,.62-.07c.21,0,.33,0,.33-.2s-.16-.17-.43-.17c-.79,0-2,.06-2.53.06s-1.9-.06-2.69-.06c-.33,0-.49,0-.49.17s.12.2.33.2a2.55,2.55,0,0,1,.74.09c.46.1.67.45.71,1.15s0,1.25,0,4.39Z" transform="translate(-2402.5 -980.2)"/><path class="cls-1" d="M2521.9,984.79h.07c.37.39,2.66,3,4.92,5.21s4.8,4.84,6.1,6.08c.23.23.48.46.71.46s.26-.19.26-.64l.23-13.06c0-1.15.19-1.59.77-1.75a2,2,0,0,1,.62-.07c.25,0,.37-.06.37-.18s-.21-.19-.48-.19c-1,0-1.79.06-2,.06-.44,0-1.43-.06-2.51-.06-.31,0-.53,0-.53.19s.08.18.33.18a3.19,3.19,0,0,1,1.09.13c.5.2.69.6.71,1.86l.2,9.29h-.1c-.35-.33-3.14-3.31-4.55-4.72-3-3-6.17-6.37-6.41-6.64s-.54-.64-.77-.64-.27.29-.27.7l-.18,12.25c0,1.8-.11,2.4-.65,2.56a3.33,3.33,0,0,1-.93.11c-.2,0-.33,0-.33.16s.19.21.46.21c1.07,0,2-.06,2.23-.06.4,0,1.22.06,2.57.06.29,0,.47,0,.47-.21s-.12-.16-.35-.16a3.11,3.11,0,0,1-1.07-.15c-.42-.14-.69-.68-.73-2.29Z" transform="translate(-2402.5 -980.2)"/><path class="cls-1" d="M2542.64,996.58a6,6,0,0,0,3.29-.85,4.17,4.17,0,0,0,2-3.6c0-2-.91-3.35-3.4-5.27l-.58-.44c-1.71-1.3-2.19-2-2.19-3a2.18,2.18,0,0,1,2.46-2.13,2.61,2.61,0,0,1,2.26,1,2.53,2.53,0,0,1,.54,1.36c0,.25.06.37.2.37s.23-.16.23-.62c0-1.61.08-2.21.08-2.48s-.1-.21-.29-.25a10.13,10.13,0,0,0-2.75-.35c-2.87,0-4.78,1.64-4.78,3.91,0,1.68.79,3.12,3.06,4.9l1,.75c1.71,1.32,2,2.29,2,3.31a2.52,2.52,0,0,1-2.77,2.36,2.86,2.86,0,0,1-3-2.09,4.6,4.6,0,0,1-.18-1.06c0-.16,0-.35-.21-.35s-.23.23-.25.54-.1,1.57-.1,2.71c0,.45.06.56.39.7A7.21,7.21,0,0,0,2542.64,996.58Z" transform="translate(-2402.5 -980.2)"/><path class="cls-1" d="M2552.93,989.67c0,3,.79,4.53,1.85,5.48a6.62,6.62,0,0,0,4.59,1.43,6.19,6.19,0,0,0,4.3-1.49c1.74-1.49,2-3.93,2-6.23v-2.21c0-3.14,0-3.72,0-4.39s.2-1.07.76-1.17a2.64,2.64,0,0,1,.6-.07c.25,0,.38,0,.38-.18s-.15-.19-.44-.19c-.81,0-2.11.06-2.36.06,0,0-1.32-.06-2.38-.06-.29,0-.43,0-.43.19s.12.18.35.18a3.42,3.42,0,0,1,.75.07c.68.14.84.47.89,1.17s0,1.25,0,4.39v2.59c0,2.13-.07,4-1.2,5.13a4.09,4.09,0,0,1-2.86,1.11,3.8,3.8,0,0,1-2.58-.85c-1-.82-1.62-2.09-1.62-5.08v-2.9c0-3.14,0-3.72,0-4.39s.21-1.07.77-1.17a2.58,2.58,0,0,1,.6-.07c.21,0,.33,0,.33-.18s-.14-.19-.45-.19c-.75,0-2,.06-2.55.06s-1.92-.06-3-.06c-.31,0-.45,0-.45.19s.12.18.35.18a3.48,3.48,0,0,1,.8.07c.69.14.85.47.89,1.17s0,1.25,0,4.39Z" transform="translate(-2402.5 -980.2)"/><path class="cls-1" d="M2574.23,986.65c0-3.14,0-3.72,0-4.39s.21-1.07.77-1.17a4.59,4.59,0,0,1,.81-.07c.24,0,.37,0,.37-.18s-.15-.19-.44-.19c-.8,0-2.31.06-2.81.06s-1.86-.06-2.83-.06c-.31,0-.46,0-.46.19s.13.18.35.18a2.66,2.66,0,0,1,.69.07c.68.14.84.47.89,1.17s0,1.25,0,4.39v3.64c0,1.9,0,3.54-.11,4.41-.08.6-.18,1-.6,1.13a2.8,2.8,0,0,1-.74.09c-.25,0-.33.06-.33.16s.14.21.41.21c.83,0,2.13-.06,2.61-.06,1.67,0,3,.12,6,.12,1.07,0,1.18-.1,1.3-.56a15.69,15.69,0,0,0,.31-2.38c0-.24,0-.35-.16-.35s-.21.13-.23.31a2.54,2.54,0,0,1-.54,1.24c-.52.56-1.32.58-2.42.58-1.61,0-2.15-.14-2.5-.45s-.44-1.8-.44-4.45Z" transform="translate(-2402.5 -980.2)"/><path class="cls-1" d="M2590.63,990.89a.2.2,0,0,1,.21.14l1.65,4.39a.34.34,0,0,1-.18.48c-.21,0-.29.06-.29.18s.25.15.62.17c1.65,0,3.16,0,3.91,0s.95,0,.95-.21-.1-.16-.27-.16a4,4,0,0,1-.87-.09c-.43-.1-1-.39-1.82-2.25-1.32-3.14-4.63-11.58-5.13-12.72-.21-.48-.33-.66-.52-.66s-.33.22-.58.82l-5.19,13c-.41,1-.8,1.74-1.76,1.87a6.28,6.28,0,0,1-.64,0c-.16,0-.25,0-.25.16s.13.21.4.21c1.07,0,2.21-.06,2.44-.06.64,0,1.53.06,2.19.06.23,0,.35,0,.35-.21s-.06-.16-.31-.16h-.31c-.64,0-.82-.27-.82-.64a4,4,0,0,1,.31-1.27l1.11-3c0-.13.09-.17.19-.17Zm-4.2-1c-.08,0-.1-.07-.08-.15l1.9-5.09c0-.08.06-.18.13-.18s.08.1.1.18l1.86,5.11c0,.06,0,.13-.1.13Z" transform="translate(-2402.5 -980.2)"/><path class="cls-1" d="M2451.67,1015.13s-.06,0-.06-.07v-.22c0-1.57,0-1.86,0-2.19s.1-.54.38-.59l.3,0c.12,0,.19,0,.19-.1s-.08-.09-.22-.09l-1.3,0c-.28,0-.93,0-1.49,0-.15,0-.22,0-.22.09s.06.1.18.1a2.17,2.17,0,0,1,.4,0c.34.07.42.24.44.59s0,.62,0,2.19v1.82c0,1,0,1.77,0,2.2s-.09.53-.3.57a1.66,1.66,0,0,1-.37,0c-.12,0-.17,0-.17.09s.08.1.21.1l1.3,0c.29,0,1,0,1.62,0,.12,0,.21,0,.21-.1s-.06-.09-.17-.09a4.55,4.55,0,0,1-.53,0c-.31,0-.37-.27-.4-.56,0-.44,0-1.26,0-2.21v-.91a.05.05,0,0,1,.06-.06h3.95a.06.06,0,0,1,.06.06v.91c0,1,0,1.77,0,2.2s-.09.53-.3.57a1.73,1.73,0,0,1-.37,0c-.13,0-.17,0-.17.09s.08.1.22.1l1.29,0c.29,0,.94,0,1.62,0,.12,0,.2,0,.2-.1s0-.09-.16-.09a4.55,4.55,0,0,1-.53,0c-.31,0-.37-.27-.4-.56-.05-.44-.05-1.26-.05-2.21v-1.82c0-1.57,0-1.86,0-2.19s.1-.54.38-.59l.3,0c.12,0,.18,0,.18-.1s-.07-.09-.21-.09l-1.31,0c-.28,0-.93,0-1.49,0-.14,0-.21,0-.21.09s.06.1.17.1a2.29,2.29,0,0,1,.41,0c.34.07.42.24.44.59s0,.62,0,2.19v.22c0,.05,0,.07-.06.07Z" transform="translate(-2402.5 -980.2)"/><path class="cls-1" d="M2474.76,1019.8a4.08,4.08,0,0,0,4.28-4.24c0-2.36-1.6-3.86-4.18-3.86a4,4,0,0,0-4.27,4A3.94,3.94,0,0,0,2474.76,1019.8Zm.44-.51c-2,0-3.18-1.71-3.18-3.86,0-2.58,1.35-3.24,2.54-3.24,1.7,0,3,1.44,3,3.76C2477.59,1018.94,2475.92,1019.29,2475.2,1019.29Z" transform="translate(-2402.5 -980.2)"/><path class="cls-1" d="M2494,1016.66c0,1,0,1.77,0,2.2s-.09.53-.3.57a1.73,1.73,0,0,1-.37,0c-.13,0-.17,0-.17.09s.07.1.21.1l1.3,0c.29,0,.94,0,1.63,0,.11,0,.19,0,.19-.1s0-.09-.16-.09a4.39,4.39,0,0,1-.53,0c-.31,0-.37-.27-.4-.56a21.43,21.43,0,0,1-.06-2.21v-4.24l1.31,0c.92,0,1.2.31,1.22.58v.11c0,.16,0,.21.11.21s.09-.06.1-.17,0-1,0-1.2,0-.21-.09-.21a4.61,4.61,0,0,1-1,.1h-4.1c-.34,0-.73,0-1,0a2.26,2.26,0,0,1-.44-.12c-.07,0-.1.06-.13.19s-.22,1-.22,1.19,0,.17.1.17.09,0,.11-.13a1.16,1.16,0,0,1,.18-.36c.15-.23.4-.28,1-.3l1.54,0Z" transform="translate(-2402.5 -980.2)"/><path class="cls-1" d="M2511.38,1016.66a21.11,21.11,0,0,1-.06,2.2c0,.3-.09.53-.3.57a1.66,1.66,0,0,1-.37,0c-.12,0-.16,0-.16.09s.07.1.2.1l1.31,0c.61,0,1.3.06,2.86.06.4,0,.49,0,.56-.27a8.41,8.41,0,0,0,.14-1.15c0-.1,0-.18-.09-.18s-.09,0-.11.15c-.07.43-.2.64-.47.77a2.7,2.7,0,0,1-1,.12c-1.05,0-1.22-.15-1.24-.87,0-.3,0-1.25,0-1.6v-.82c0-.06,0-.1.06-.1.25,0,1.27,0,1.47,0,.38,0,.53.2.58.4a2.9,2.9,0,0,1,0,.38.08.08,0,0,0,.09.09c.1,0,.1-.11.1-.2s0-.48,0-.69c0-.53.08-.69.08-.76s0-.08-.07-.08-.09.05-.17.14-.24.13-.49.15-1.43,0-1.66,0c-.06,0-.07,0-.07-.11v-2.62c0-.07,0-.1.07-.1.21,0,1.29,0,1.47,0,.52.06.62.19.69.37a1,1,0,0,1,.07.37c0,.1,0,.15.09.15s.09-.06.1-.11,0-.58,0-.69c0-.47.09-.6.09-.67s0-.09-.07-.09a.94.94,0,0,0-.16,0l-.45.06h-2.58c-.29,0-.94,0-1.49,0-.16,0-.23,0-.23.09s.06.1.18.1a2.17,2.17,0,0,1,.4,0c.34.07.42.24.45.59s0,.62,0,2.19Z" transform="translate(-2402.5 -980.2)"/><path class="cls-1" d="M2530.66,1014.84c0-1.57,0-1.86,0-2.19s.11-.54.39-.59a2.69,2.69,0,0,1,.4,0c.12,0,.18,0,.18-.1s-.07-.09-.21-.09l-1.41,0c-.28,0-.93,0-1.42,0-.15,0-.22,0-.22.09s.06.1.17.1a1.52,1.52,0,0,1,.34,0c.34.07.43.24.45.59s0,.62,0,2.19v1.82c0,1,0,1.77,0,2.2s-.1.53-.3.57a1.84,1.84,0,0,1-.38,0c-.12,0-.16,0-.16.09s.07.1.21.1l1.3,0c.84,0,1.52.06,3,.06.54,0,.59-.05.65-.28a8.58,8.58,0,0,0,.16-1.19c0-.12,0-.17-.09-.17s-.1.06-.11.15a1.3,1.3,0,0,1-.27.62c-.26.28-.66.29-1.21.29-.81,0-1.08-.07-1.25-.23s-.22-.9-.22-2.22Z" transform="translate(-2402.5 -980.2)"/><path class="cls-1" d="M2548,1019.8a3,3,0,0,0,1.64-.42,2.1,2.1,0,0,0,1-1.8c0-1-.45-1.68-1.69-2.64l-.29-.21c-.86-.66-1.1-1-1.1-1.49a1.09,1.09,0,0,1,1.23-1.07,1.32,1.32,0,0,1,1.13.51,1.24,1.24,0,0,1,.27.68c0,.12,0,.19.1.19s.11-.09.11-.31c0-.81,0-1.11,0-1.24s-.06-.11-.15-.13a5.16,5.16,0,0,0-1.38-.17c-1.43,0-2.38.81-2.38,1.95,0,.84.39,1.56,1.53,2.45l.47.37c.86.67,1,1.15,1,1.66a1.26,1.26,0,0,1-1.39,1.18,1.43,1.43,0,0,1-1.48-1,2.18,2.18,0,0,1-.09-.52c0-.09,0-.18-.11-.18s-.11.11-.12.27,0,.78,0,1.35c0,.23,0,.28.19.35A3.59,3.59,0,0,0,2548,1019.8Z" transform="translate(-2402.5 -980.2)"/><rect class="cls-2" y="23.57" width="194.91" height="0.66"/></svg>